<?xml version="1.0" standalone="no"?>
<!DOCTYPE svg PUBLIC "-//W3C//DTD SVG 20010904//EN"
 "http://www.w3.org/TR/2001/REC-SVG-20010904/DTD/svg10.dtd">
<svg version="1.0" xmlns="http://www.w3.org/2000/svg"
 width="256.000000pt" height="256.000000pt" viewBox="0 0 256.000000 256.000000"
 preserveAspectRatio="xMidYMid meet">

<g transform="translate(0.000000,256.000000) scale(0.100000,-0.100000)"
fill="#FFFFFF" stroke="none">
<path d="M545 2070 l-330 -330 226 0 226 0 2 -55 c0 -31 10 -83 21 -116 64
-188 228 -299 444 -299 l61 0 0 -93 c0 -85 2 -97 28 -135 15 -23 27 -45 27
-50 0 -4 -51 -13 -112 -20 -401 -43 -622 -218 -606 -479 10 -163 114 -275 317
-342 141 -46 397 -47 561 -1 292 82 480 317 441 552 -21 128 -67 193 -244 341
-137 116 -146 126 -154 169 -8 55 21 102 106 174 90 75 145 144 173 216 26 69
34 196 15 265 l-14 52 144 143 143 143 0 -53 c0 -28 -4 -52 -8 -52 -5 0 -14
-11 -20 -25 -16 -36 -17 -694 -1 -729 26 -55 112 -55 138 0 7 17 11 134 11
365 0 342 -3 372 -36 392 -10 6 -14 32 -14 90 l0 81 62 63 62 63 -669 0 -670
0 -330 -330z m732 42 c194 -99 302 -505 179 -667 -14 -18 -51 -46 -81 -60
-148 -73 -300 -5 -389 174 -75 149 -92 341 -39 445 30 60 83 104 153 127 40
13 133 3 177 -19z m149 -1261 c109 -76 180 -146 210 -207 23 -48 26 -63 22
-127 -5 -81 -22 -121 -74 -172 -73 -73 -185 -110 -334 -108 -281 2 -469 136
-470 333 0 197 195 325 501 329 75 1 76 1 145 -48z"/>
</g>
</svg>
