<?xml version="1.0" encoding="UTF-8" standalone="no"?>
<svg
   xmlns:dc="http://purl.org/dc/elements/1.1/"
   xmlns:cc="http://creativecommons.org/ns#"
   xmlns:rdf="http://www.w3.org/1999/02/22-rdf-syntax-ns#"
   xmlns:svg="http://www.w3.org/2000/svg"
   xmlns="http://www.w3.org/2000/svg"
   version="1.1"
   viewBox="0 0 256 256"
   id="svg3071">
  <defs
     id="defs9" />
  <path
     id="path3058-6"
     style="color:#000000;text-indent:0;text-transform:none;block-progression:tb;fill:#1f2e43;fill-opacity:1"
     d="M 103.09,0 C 76.668,0 50.241,10.027 30.155,30.113 c -40.172,40.171 -40.218,105.74 -0.046,145.91 35.217,35.216 89.911,39.558 129.94,13.03 l 60.918,60.916 c 8.0386,8.0384 20.97,8.0384 29.008,0 8.0387,-8.0384 8.0387,-20.969 0,-29.008 L 189.103,160.045 C 215.6,120.022 211.23,65.313 176.026,30.105 155.94,10.02 129.512,-0.008 103.091,-0.008 Z m -0.046,27.166 c 19.371,0.009 38.738,7.4275 53.596,22.285 29.716,29.715 29.762,77.521 0.046,107.24 -29.716,29.715 -77.523,29.715 -107.24,0 -29.716,-29.715 -29.716,-77.52 0,-107.24 14.858,-14.858 34.225,-22.295 53.596,-22.285 z" />
  <metadata
     id="metadata5">
    <rdf:RDF>
      <cc:Work>
        <dc:format>image/svg+xml</dc:format>
        <dc:type
           rdf:resource="http://purl.org/dc/dcmitype/StillImage" />
        <cc:license
           rdf:resource="http://creativecommons.org/publicdomain/zero/1.0/" />
        <dc:publisher>
          <cc:Agent
             rdf:about="http://openclipart.org/">
            <dc:title>Openclipart</dc:title>
          </cc:Agent>
        </dc:publisher>
        <dc:title></dc:title>
        <dc:date>2013-11-11T18:47:39</dc:date>
        <dc:description>search icon/pictogram/Ideogram</dc:description>
        <dc:source>https://openclipart.org/detail/188650/search-ideogram-by-libberry-188650</dc:source>
        <dc:creator>
          <cc:Agent>
            <dc:title>libberry</dc:title>
          </cc:Agent>
        </dc:creator>
        <dc:subject>
          <rdf:Bag>
            <rdf:li>hand lens</rdf:li>
            <rdf:li>library</rdf:li>
            <rdf:li>magnifier</rdf:li>
            <rdf:li>magnifying glass</rdf:li>
            <rdf:li>search</rdf:li>
          </rdf:Bag>
        </dc:subject>
      </cc:Work>
      <cc:License
         rdf:about="http://creativecommons.org/publicdomain/zero/1.0/">
        <cc:permits
           rdf:resource="http://creativecommons.org/ns#Reproduction" />
        <cc:permits
           rdf:resource="http://creativecommons.org/ns#Distribution" />
        <cc:permits
           rdf:resource="http://creativecommons.org/ns#DerivativeWorks" />
      </cc:License>
    </rdf:RDF>
  </metadata>
</svg>
